<?xml version="1.0" encoding="utf-8"?>
<!-- Generator: Adobe Illustrator 24.3.0, SVG Export Plug-In . SVG Version: 6.00 Build 0)  -->
<svg version="1.1" id="Layer_1" xmlns="http://www.w3.org/2000/svg" xmlns:xlink="http://www.w3.org/1999/xlink" x="0px" y="0px"
	 viewBox="0 0 200 67" style="enable-background:new 0 0 200 67;" xml:space="preserve">
<style type="text/css">
	.st0{fill:#57B549;}
	.st1{fill:#6B6B6B;}
	.st2{fill:#D9D235;}
	.st3{fill:#BFD235;}
	.st4{fill:#C1D08A;}
	.st5{fill:#6F6F6F;}
	.st6{fill:#73B65C;}
	.st7{fill:#F9FCF2;}
	.st8{fill:#EFF8E9;}
	.st9{fill:#9CC955;}
	.st10{fill:#F1F9E5;}
	.st11{fill:#BED230;}
	.st12{font-family:'MS-UIGothic';}
	.st13{font-size:16.8538px;}
</style>
<path class="st0" d="M62.14,15c2.35,3.07,4.69,6.16,7.06,9.22c1.1,1.42,1.15,1.59-0.53,2.2c-2.75,1-5.35,2.43-8.21,3.13
	c-2.21-1.36-4.7-2-7.15-2.73c-1.27-0.38-2.39-1.18-3.76-1.23c-1.87-2.73-3.75-5.45-5.61-8.19c-1.63-2.41-3.22-4.84-4.83-7.25
	c-0.58-0.87-1.35-1.21-2.21-0.45c-1.01,0.88-1.81,2.04-2.92,2.75c-1.05,0.68-1.77,1.98-3.24,1.97C30.16,10.89,29.6,7.36,29,3.83
	c-0.19-1.1,0.04-1.74,1.31-1.64c0.22,0.02,0.45-0.11,0.67-0.17c0.47,0,0.94-0.01,1.4-0.01C33.5,2.02,34.63,2.01,35.75,2
	c4.77,0.14,9.53-0.22,14.3-0.35c1.05-0.03,1.77,0.25,2.39,1.09c1.73,2.31,3.49,4.62,5.31,6.87C59.2,11.41,60.37,13.45,62.14,15z"/>
<path class="st0" d="M58.54,35.48c1.95,0.67,3.9,1.34,5.85,2.01c0.05,0.24,0.21,0.35,0.41,0.5c1.05,0.75,2.41,0.4,3.5,1.1
	c0.84,0.54,1.39,0.81,0.73,2c-0.55,1-1.42,1.97-1.29,3.27c0,0-0.05,0.08-0.05,0.08c-0.07,0.11-0.13,0.21-0.2,0.32
	c-0.21,0.54-0.41,1.08-0.62,1.63c0,0,0,0,0,0c-0.35,0.14-0.4,0.5-0.54,0.78c-1.38,2.75-2.76,5.5-4.14,8.26
	c-1.16,0.22-1.78,1.41-1.65,3.2c-0.07,0.08-0.14,0.16-0.21,0.24c-0.68-0.07-1.43-0.35-1.64,0.71c-0.05,0.26-0.34,0.33-0.57,0.31
	c-1.72-0.15-3.3,0.94-5.04,0.6c-0.26-0.05-0.56,0.02-0.82,0.11c-1.37,0.49-2.66,1.51-4.23,0.47c-0.23-0.15-0.7-0.13-0.96,0
	c-1.95,0.96-4.03,0.35-6.03,0.54c-0.4,0.04-0.92-0.22-1.22,0.35c0.8,0.44,1.76-0.13,2.44,0.58c-0.23,0.31-0.9,0.07-0.9,0.69
	c-0.93,0.21-1.87,0.42-2.8,0.63c-2.19,0.14-4.31,0.69-6.46,1.05c-1.67,0.27-1.93,0.02-1.77-1.64c0.32-3.38,0.67-6.76,1-10.14
	c0.33-0.36,0.22-0.76,0.1-1.16c0.04-0.36,0.08-0.71,0.12-1.07c0.59-0.24,1.09-0.01,1.56,0.32c1.9,1.33,3.81,2.65,5.68,4.02
	c0.98,0.72,1.49,0.63,2.07-0.39c0.69-1.23,0.99-2.6,1.44-3.91c0.72-2.06,1.78-4,2.2-6.16c1.77-0.01,3.53-0.04,5.3-0.04
	c0.54,0,1.04-0.04,1.35-0.53c1.37-2.11,3.02-4.03,4.3-6.22C56.11,36.86,56.66,35.25,58.54,35.48z"/>
<path class="st0" d="M14.48,52.77c0-0.07-0.03-0.12-0.1-0.16c-0.17-0.62-0.51-1.11-1.04-1.46c0,0,0.01,0.02,0.01,0.02
	c-0.1-0.25-0.16-0.54-0.31-0.76c-2.17-3.09-4.35-6.17-6.53-9.25c0,0-0.01-0.05-0.01-0.05c0.01-0.79,0.03-1.57,0.03-2.36
	c0.01-2.63-0.23-5.28,0.94-7.79c0.36-0.78,0.83-1.57,0.74-2.5c0,0,0-0.01,0-0.01c1.45-3.16,2.49-6.46,3.39-9.81l0,0
	c0.86-1.49,1.24-3.14,1.66-4.79c0.19-0.38,0.37-0.75,0.56-1.13c0.24-0.03,0.41-0.11,0.53-0.36c0.77-1.56,0.85-1.46,2.24-0.63
	c0.97,0.58,1.7,1.71,3.05,1.59l0.07,0.04c0.09,0.07,0.18,0.14,0.28,0.21l0.01,0.01c-0.03,0.72,0.34,0.91,0.98,0.76
	c1.99,1.23,3.93,2.55,5.78,4c-0.38,0.86-1.19,1.52-1.15,2.58c0.05,1.1,0.01,2.21,0.02,3.31c-0.02,0.07-0.04,0.15-0.04,0.23
	c-0.21,0.1-0.43,0.18-0.62,0.3c-3.07,2.06-6.13,4.13-9.2,6.2c-1-0.49-1.19,0.54-1.68,0.95c-0.43,0.36-0.44,1.08-0.08,1.39
	c1.12,0.94,1.83,2.32,3.18,2.99c1.47,1.66,2.99,3.28,4.41,4.98c1.15,1.38,2.35,2.68,4.01,3.46c1.47,0.73,3.04,0.43,4.58,0.46
	c-0.04,0.4-0.07,0.81-0.11,1.21l0-0.02c-1.73,1.55-3.51,3.05-5.18,4.66c-1.09,1.06-2.43,1.87-3.24,3.22c0,0,0,0,0,0
	c-1.08,0.49-1.77,1.44-2.61,2.22c-0.76,0.72-1.31,0.83-1.97-0.19C16.3,55.08,15.55,53.8,14.48,52.77z"/>
<path class="st1" d="M120.93,16.67c-5.9,0-11.79,0-17.69,0c-0.23,0-0.47,0-0.7,0c-0.42-0.01-0.87,0.06-0.89-0.58
	c-0.02-0.64,0.41-0.64,0.84-0.65c1.45-0.01,2.9-0.07,4.35,0.01c1.14,0.07,1.35-0.4,1.22-1.41c-0.31-2.51-1.22-3.58-3.78-4.15
	c-0.5-0.11-0.78-0.29-0.71-0.82c0.08-0.57,0.49-0.42,0.86-0.39c2.66,0.17,4.5,1.88,4.84,4.93c0.18,1.64,0.86,1.96,2.3,1.85
	c1.49-0.11,2.99-0.02,4.49-0.03c1.69-0.01,2.16-0.45,2.24-2.15c0.05-1.12-0.02-2.25,0.03-3.37c0.02-0.48-0.33-1.25,0.59-1.3
	c0.95-0.05,0.66,0.73,0.67,1.22c0.02,1.54,0.05,3.09-0.06,4.63c-0.05,0.77,0.18,1,0.9,0.99c1.87-0.02,3.74-0.05,5.61,0.01
	c1.05,0.03,1.4-0.12,1.02-1.31c-0.66-2.08,0.37-4.03,2.2-4.5c1.17-0.31,2.3-0.09,3.11,0.79c0.94,1.03,1.15,2.31,0.77,3.68
	c-0.11,0.38-0.55,0.83-0.14,1.15c0.45,0.35,1.08,0.23,1.61,0.09c0.53-0.14,0.46-0.65,0.47-1.05c0.11-2.58-0.92-4.54-3.24-5.74
	c-0.55-0.28-1.12-0.6-0.8-1.22c0.38-0.72,0.98-0.13,1.41,0.09c2.62,1.34,3.84,3.57,4,6.45c0.04,0.65-0.36,1.54,0.95,1.57
	c2.08,0.05,2.83-0.19,3.02-1.46c0.14-0.96,0.1-1.96,0.1-2.94c0.01-1.64,0-3.28,0.01-4.91c0-0.48-0.03-0.97,0.68-0.97
	c0.63,0,0.62,0.44,0.62,0.87c0,2.67,0.04,5.34-0.03,8c-0.05,1.81-0.96,2.6-2.78,2.61C133,16.68,126.96,16.67,120.93,16.67z M132,13
	c0-1.48-0.64-2.38-1.74-2.42c-1.2-0.04-2.02,0.98-2.01,2.5c0.01,1.36,0.78,2.34,1.86,2.36C131.27,15.47,131.99,14.53,132,13z"/>
<path class="st2" d="M30.22,45.2c-1.54-0.03-3.11,0.27-4.58-0.46c-0.7-1.15-0.48-2.46-0.51-3.68c-0.11-3.54-0.04-7.09-0.04-10.64
	c0-0.98,0.28-2.1-1.37-2.26c0.55-0.4,1.39-0.05,1.34-0.83c-0.07-1.02,0.47-1.89,0.56-2.86c0-0.08,0.02-0.15,0.04-0.23
	c0.2-0.18,0.39-0.36,0.59-0.55c0.85-0.29,1.91-0.25,2.21-1.41c1.5-0.31,0.96,1,1.29,1.62c0.45,0.33,0.29,0.83,0.31,1.26
	c0.04,1.18,0.05,2.37,0.08,3.55c0,0.66,0,1.32,0,1.98c0,0.28,0,0.56,0,0.83C30.16,36.09,30.19,40.65,30.22,45.2z"/>
<path class="st1" d="M91.49,16.68c-1.92,0-3.84,0-5.75,0c-1.38,0-2.62-0.32-3.27-1.7c-0.29-0.62-0.59-0.33-0.99-0.12
	c-2.36,1.26-4.36,0.38-5.05-2.2c-0.91-3.4,0.86-5.72,4.36-5.72c2.6,0,2.59,0,2.6,2.54c0.01,1.31-0.12,2.62,0.14,3.92
	c0.34,1.71,1.21,2.19,3.67,2.04c1.46-0.09,2.06-0.75,2.11-2.41c0.03-1.12,0-2.25,0.01-3.37c0-0.5-0.13-1.09,0.7-1.07
	c0.71,0.02,0.66,0.51,0.66,0.99c-0.02,1.64,0.03,3.28-0.1,4.91c-0.07,0.8,0.15,0.93,0.87,0.96c2.18,0.09,2.57-0.22,2.61-2.39
	c0.03-1.22,0.01-2.43,0.01-3.65c0-0.49,0.13-0.82,0.7-0.82c0.59,0,0.67,0.37,0.67,0.84c-0.01,1.45-0.04,2.9,0,4.35
	c0.02,0.62-0.64,1.56,0.72,1.67c1.64,0.13,2.54-0.3,2.66-1.55c0.11-1.21,0.05-2.43,0.07-3.65c0.01-0.37,0.02-0.75,0.05-1.12
	c0.03-0.41,0.3-0.54,0.67-0.55c0.4,0,0.62,0.18,0.61,0.58c-0.04,1.87,0.19,3.75-0.15,5.6c-0.25,1.37-1.24,1.9-2.56,1.91
	C95.52,16.68,93.5,16.68,91.49,16.68z M82.14,10.12c0-0.33-0.03-0.66,0.01-0.98c0.12-0.97-0.26-1.31-1.25-1.3
	c-1.36,0.01-2.55,0.23-3.05,1.68c-0.52,1.49-0.51,2.97,0.6,4.23c1.04,1.18,2.68,0.87,3.28-0.59C82.11,12.19,82.16,11.15,82.14,10.12
	z"/>
<path class="st3" d="M58.54,35.48c-1.88-0.23-2.42,1.38-3.08,2.51c-1.28,2.19-2.93,4.11-4.3,6.22c-0.31,0.48-0.81,0.53-1.35,0.53
	c-1.77-0.01-3.53,0.02-5.3,0.04c-0.11-0.02-0.22-0.03-0.33-0.05c0.9-1.36,1.92-2.71,2.17-4.32c0.18-1.14,0.74-1.73,1.56-2.28
	c0.29-0.19,0.77-0.16,0.77-0.67c1.55-1.28,3.39-2.11,5.05-3.21c0.32-0.21,0.93-0.13,1.35,0C56.25,34.61,57.39,35.07,58.54,35.48z"/>
<path class="st1" d="M175.32,19.52c-0.36-0.02-0.73-0.04-1.09-0.06c-0.1-0.62-0.05-1.11,0.76-1.18c0.26-0.02,0.53-0.2,0.74-0.37
	c0.29-0.23,0.63-0.54,0.55-0.92c-0.11-0.51-0.63-0.33-0.95-0.3c-2.9,0.34-4.63-2.16-4.04-5.12c0.39-1.95,2.29-3.25,4.15-2.9
	c1.48,0.28,2.29,1.11,2.51,2.62c0.06,0.41,0.07,0.84,0.07,1.26c0.03,2.89,0.03,2.89,2.86,2.88c3.37,0,6.74,0.01,10.1,0
	c1.9-0.01,2.32-0.42,2.37-2.29c0.04-1.22,0.01-2.43,0-3.65c0-0.44-0.01-0.87,0.6-0.91c0.65-0.03,0.77,0.39,0.77,0.91
	c-0.01,1.5,0.05,3-0.03,4.49c-0.11,1.89-0.99,2.67-2.88,2.68c-4.07,0.01-8.14,0.02-12.21,0c-1.11-0.01-1.95,0.22-2.37,1.43
	C176.96,18.91,176.11,19.24,175.32,19.52z M176.69,13.06c-0.01,0-0.01,0-0.02,0c0-0.51,0.05-1.03-0.01-1.53
	c-0.2-1.58-1.89-2.24-3.14-1.27c-1.35,1.05-1.3,3.86,0.11,4.81c0.83,0.56,1.82,0.59,2.68,0.29c0.75-0.27,0.26-1.15,0.38-1.75
	C176.72,13.43,176.69,13.24,176.69,13.06z"/>
<path class="st4" d="M190.2,21.11c0.3,0.13,0.76,0.32,0.12,0.54c-0.46,0.16-1.02,0.07-1.53,0.07c-35.38,0-70.76,0-106.14,0
	c-0.47,0-0.94,0.02-1.4,0.02c-0.09-0.03-0.18-0.04-0.28-0.03c0-0.19,0-0.37,0-0.56c0.65-0.01,1.31-0.03,1.96-0.04
	c1.03,0.01,2.06,0.04,3.08,0.04c33.33,0,66.66,0,99.99,0c0.65,0,1.31-0.03,1.96-0.05C188.71,21.1,189.45,21.1,190.2,21.11z"/>
<path class="st1" d="M170.72,30.68c2.37,0.01,2.21,0.02,2.44,2.44c0.18,1.8-0.69,2.54-2.08,3.15c-2.68,1.17-5.95,0.59-7.63-1.38
	c-1.65-1.93-1.81-5.41-0.36-7.79c1.64-2.69,6.18-3.36,8.54-1.25c0.43,0.38,0.75,0.84,0.96,1.36c0.17,0.43,0.44,0.93-0.22,1.17
	c-0.49,0.18-0.95,0.27-1.25-0.43c-0.66-1.58-2.02-1.97-3.58-1.84c-1.57,0.13-2.78,0.85-3.32,2.39c-0.72,2.05-0.76,4.06,0.82,5.78
	c1.11,1.2,3.27,1.41,5.12,0.71c1-0.38,1.34-1.03,1.29-2.05c-0.03-0.57-0.18-0.87-0.8-0.83c-0.47,0.03-0.94,0.02-1.4,0
	c-0.53-0.02-1.18,0.17-1.16-0.76c0.01-0.85,0.61-0.65,1.09-0.67C169.69,30.66,170.2,30.68,170.72,30.68z"/>
<path class="st1" d="M76.41,30.73c0-1.64,0.02-3.28-0.01-4.91c-0.02-0.78,0.25-1.05,1.05-1.04c2.24,0.05,4.49,0.03,6.74,0.01
	c0.53,0,0.9,0.04,0.9,0.72c0,0.69-0.4,0.72-0.92,0.71c-1.68-0.01-3.37,0.03-5.05-0.02c-0.81-0.03-1.1,0.26-1.01,1.05
	c0.04,0.32,0.05,0.66,0,0.98c-0.18,1.21,0.27,1.69,1.54,1.58c1.3-0.11,2.62-0.02,3.93-0.03c0.56,0,1.02,0.02,1,0.79
	c-0.03,0.71-0.48,0.68-0.96,0.68c-1.45,0-2.9,0.04-4.35-0.01c-0.84-0.03-1.18,0.25-1.16,1.12c0.1,3.48-0.48,2.79,2.74,2.86
	c1.22,0.03,2.43,0.01,3.65,0c0.53,0,0.92,0.1,0.9,0.76c-0.02,0.66-0.44,0.72-0.95,0.72c-2.34-0.01-4.68-0.03-7.02,0.02
	c-0.84,0.02-1.02-0.34-1-1.09C76.44,34,76.41,32.36,76.41,30.73C76.41,30.73,76.41,30.73,76.41,30.73z"/>
<path class="st5" d="M102.27,32.59c0,1.45,0.04,2.9-0.01,4.34c-0.05,1.45-0.77,2.5-2.18,2.93c-1.6,0.49-3.15,0.43-4.47-0.75
	c-0.47-0.42-0.87-1.16-0.41-1.58c0.48-0.43,1.18-0.18,1.6,0.53c0.54,0.92,1.49,0.89,2.37,0.73c0.79-0.15,1.32-0.68,1.49-1.49
	c0.07-0.32,0.2-0.68-0.05-0.94c-0.28-0.29-0.59,0-0.89,0.09c-2.36,0.73-4.32-0.4-4.86-2.8c-0.64-2.85,0.72-5.4,3.05-5.71
	c0.66-0.09,1.3-0.01,1.92,0.26c0.25,0.11,0.58,0.35,0.75,0.26c0.56-0.27,1.18-0.68,1.64-0.16c0.39,0.44,0.1,1.16,0.1,1.76
	c0,0.84,0,1.68,0,2.52C102.3,32.59,102.29,32.59,102.27,32.59z M100.91,32.63c0.01-1.74-0.41-2.74-1.31-3.16
	c-1.05-0.49-2-0.34-2.76,0.6c-0.77,0.96-0.78,3.52,0.02,4.53c0.7,0.88,1.64,1.06,2.64,0.61C100.73,34.66,100.86,33.52,100.91,32.63z
	"/>
<path class="st5" d="M164.37,16.61c-1.07,0.02-2.15,0.05-3.22,0.06c-0.82,0-1.75-0.11-2.17-0.77c-0.79-1.21-1.55-1.24-2.76-0.63
	c-1.17,0.59-2.29,0.14-3.12-0.86c-1.33-1.6-1.44-3.4-0.73-5.27c0.69-1.8,2.14-2.26,3.95-2.22c2.84,0.06,2.84,0.01,2.85,2.87
	c0,1.12-0.03,2.25,0.06,3.36c0.14,1.76,1.12,2.38,3.46,2.28c1.53-0.07,1.99-0.59,2.03-2.37c0.02-1.17,0.01-2.34,0.01-3.5
	c0-0.49-0.03-0.97,0.67-0.97c0.73,0.01,0.63,0.54,0.63,1c0,1.54-0.01,3.08,0,4.62c0,0.92-0.43,1.6-1.09,2.18
	C164.74,16.46,164.56,16.53,164.37,16.61z M157.87,10.05c0-0.23-0.03-0.47,0.01-0.7c0.18-1.16-0.29-1.53-1.46-1.51
	c-1.43,0.03-2.44,0.49-2.91,1.89c-0.5,1.49-0.06,3.51,0.92,4.29c1.04,0.82,2.46,0.45,3-0.81C157.85,12.2,157.87,11.12,157.87,10.05z
	"/>
<path class="st1" d="M156.56,32.78c0,1.45,0.06,2.9-0.02,4.34c-0.08,1.47-0.92,2.44-2.34,2.8c-1.56,0.4-3.08,0.34-4.3-0.89
	c-0.42-0.42-0.91-1.09-0.31-1.55c0.43-0.33,1.11-0.12,1.5,0.56c0.56,0.98,1.56,0.93,2.5,0.74c0.87-0.18,1.32-0.83,1.43-1.71
	c0.06-0.52,0.05-0.92-0.72-0.74c-2.51,0.59-3.6,0.23-4.59-1.43c-1.04-1.73-0.83-4.45,0.47-5.93c0.94-1.06,2.48-1.35,4.01-0.78
	c0.31,0.11,0.52,0.53,0.99,0.22c1.23-0.83,1.53-0.19,1.49,0.99c-0.03,1.12-0.01,2.24-0.01,3.37
	C156.61,32.78,156.59,32.78,156.56,32.78z M150.56,32.18c0.01,1.04,0.06,2.08,1,2.78c0.94,0.7,1.94,0.66,2.83-0.08
	c1-0.83,1.17-3.54,0.32-4.72c-0.68-0.94-1.62-1.28-2.7-0.78C150.83,29.91,150.55,30.99,150.56,32.18z"/>
<path class="st2" d="M37.5,22.8c-0.93-1.07-2.44-1.37-3.34-2.49c5.29,1.01,10.16,3.23,15.07,5.34c0.03,0.09,0.02,0.22,0.08,0.26
	c1.65,1.21,1.8,2.16,0.65,3.97c-0.09,0.15-0.11,0.35-0.16,0.52c-2.36-1.26-4.59-2.74-6.84-4.18C41.14,25.07,39.31,23.94,37.5,22.8z"
	/>
<path class="st1" d="M178.2,27.9c2.62,0.06,3.38,0.86,3.45,3.26c0.05,1.63-0.24,3.27,0.23,4.88c0.07,0.24,0.1,0.51-0.16,0.6
	c-0.35,0.13-0.86,0.2-1.06-0.09c-0.53-0.79-1.03-0.42-1.61-0.13c-0.95,0.48-1.98,0.57-3.01,0.31c-1.1-0.28-1.84-0.95-1.92-2.13
	c-0.08-1.15,0.47-1.98,1.52-2.44c1-0.43,2.1-0.43,3.15-0.65c0.49-0.1,1.21-0.04,1.21-0.87c0-0.79-0.46-1.22-1.18-1.34
	c-1.08-0.18-2.18-0.3-2.82,0.91c-0.36,0.69-1,0.62-1.43,0.31c-0.49-0.36-0.02-0.85,0.22-1.22C175.67,27.99,177.08,28,178.2,27.9z
	 M177.3,35.72c1.46,0.03,2.47-0.71,2.72-1.92c0.17-0.82,0.23-1.56-1.04-1.13c-0.57,0.19-1.19,0.2-1.78,0.33
	c-0.77,0.17-1.5,0.51-1.44,1.43C175.82,35.42,176.61,35.66,177.3,35.72z"/>
<path class="st1" d="M119.99,32.76c-0.7,0-1.4,0.03-2.1-0.01c-1.04-0.06-1.22,0.4-0.86,1.28c0.72,1.77,3.02,2.14,4.24,0.67
	c0.12-0.14,0.16-0.35,0.29-0.48c0.39-0.41,0.89-0.36,1.28-0.1c0.42,0.29,0.06,0.68-0.1,0.99c-0.94,1.78-3.78,2.35-5.71,1.16
	c-1.81-1.11-2.38-3.97-1.27-6.32c0.81-1.71,2.9-2.47,4.93-1.8c1.55,0.52,2.75,2.4,2.57,3.97c-0.05,0.48-0.28,0.64-0.73,0.63
	C121.68,32.75,120.84,32.76,119.99,32.76z M119.24,31.55C119.24,31.55,119.24,31.55,119.24,31.55c0.23,0,0.47,0.05,0.69,0
	c0.56-0.14,1.5,0.42,1.62-0.43c0.12-0.86-0.55-1.51-1.41-1.84c-0.97-0.37-1.82-0.17-2.56,0.52c-0.41,0.38-0.85,0.87-0.66,1.44
	c0.22,0.64,0.88,0.23,1.34,0.31C118.58,31.6,118.91,31.55,119.24,31.55z"/>
<path class="st1" d="M128.72,32.78c-0.79,0-1.59,0.02-2.38,0c-0.82-0.02-0.95,0.38-0.73,1.07c0.29,0.93,0.87,1.53,1.85,1.7
	c0.93,0.16,1.77,0.06,2.37-0.79c0.11-0.15,0.19-0.32,0.3-0.47c0.35-0.47,0.86-0.43,1.26-0.21c0.56,0.31,0.14,0.75-0.04,1.08
	c-0.9,1.66-3.55,2.25-5.48,1.24c-1.87-0.98-2.58-3.58-1.66-6.07c0.66-1.81,2.68-2.77,4.72-2.27c1.79,0.44,3.03,2.14,2.93,3.97
	c-0.03,0.52-0.22,0.77-0.76,0.75c-0.79-0.02-1.59-0.01-2.38-0.01C128.72,32.77,128.72,32.77,128.72,32.78z M127.87,31.56
	c0.46,0,0.93-0.03,1.39,0.01c1.2,0.09,1.06-0.58,0.71-1.29c-0.64-1.29-2.59-1.58-3.71-0.56c-0.45,0.41-0.93,0.96-0.73,1.55
	c0.19,0.58,0.89,0.2,1.36,0.28C127.21,31.6,127.54,31.56,127.87,31.56z"/>
<path class="st1" d="M191.47,32.77c-0.65,0-1.31-0.01-1.96,0c-1.17,0.02-1.4,0.4-0.89,1.43c0.83,1.67,3,1.92,4.17,0.49
	c0.15-0.18,0.24-0.41,0.42-0.55c0.37-0.3,0.84-0.26,1.18-0.01c0.41,0.3,0.08,0.67-0.09,0.98c-1.37,2.44-5.49,2.37-6.96-0.11
	c-1.01-1.7-0.81-4.3,0.44-5.81c0.94-1.13,2.78-1.57,4.38-1.05c1.52,0.49,2.74,2.34,2.63,3.92c-0.04,0.54-0.26,0.74-0.78,0.72
	C193.16,32.75,192.31,32.77,191.47,32.77z M190.75,31.56c0.28,0,0.57,0.05,0.83-0.01c0.53-0.12,1.38,0.42,1.54-0.37
	c0.15-0.75-0.41-1.4-1.12-1.77c-1.01-0.53-1.98-0.42-2.83,0.33c-0.46,0.4-0.95,0.94-0.75,1.54c0.2,0.58,0.9,0.2,1.37,0.27
	C190.1,31.6,190.43,31.56,190.75,31.56z"/>
<path class="st3" d="M49.79,30.41c0.05-0.18,0.06-0.38,0.16-0.52c1.16-1.81,1-2.76-0.65-3.97c-0.06-0.04-0.06-0.17-0.08-0.26
	c0.11-0.02,0.21-0.04,0.32-0.06c1.37,0.05,2.49,0.85,3.76,1.23c2.44,0.72,4.94,1.36,7.15,2.73c-2.1,1.2-4.39,1.97-6.62,2.87
	c-0.99,0.4-1.63-0.4-2.36-0.84C50.89,31.22,50.25,30.95,49.79,30.41z"/>
<path class="st5" d="M137.87,28.37c-0.63,1-1.13,1.22-1.92,1.21c-1.13-0.02-1.37,1.02-1.43,1.91c-0.09,1.4-0.05,2.8-0.06,4.2
	c0,0.54,0.02,1.03-0.76,1.04c-0.84,0.02-0.86-0.49-0.85-1.1c0.01-2.19,0-4.39,0-6.58c0-0.41-0.01-1.11,0.51-0.9
	c1.35,0.54,2.69-0.76,3.99,0.09c0.07,0.05,0.17,0.07,0.26,0.07c1.85,0.05,1.85,0.05,1.85,1.89c0,1.82,0,3.64,0,5.46
	c0,0.53,0.04,1.04-0.74,1.07c-0.83,0.03-0.88-0.47-0.87-1.09C137.88,33.38,137.87,31.1,137.87,28.37z"/>
<path class="st5" d="M86.66,32.29c0-1.12,0.04-2.25-0.01-3.37c-0.04-1.01,0.82-1.1,1.14-0.73c0.62,0.72,0.98,0.25,1.49,0.03
	c2.37-1.04,4.4,0.23,4.45,2.81c0.03,1.59-0.01,3.18,0.01,4.77c0.01,0.64-0.21,0.93-0.89,0.93c-0.69-0.01-0.74-0.42-0.74-0.93
	c0-1.5,0-2.99,0.01-4.49c0.01-1.12-0.36-1.96-1.62-2.02c-1.2-0.06-2.04,0.53-2.15,1.73c-0.14,1.48-0.09,2.99-0.12,4.48
	c-0.01,0.6,0.13,1.26-0.85,1.24c-0.94-0.03-0.7-0.72-0.71-1.21c-0.04-1.07-0.01-2.15-0.01-3.23C86.65,32.29,86.66,32.29,86.66,32.29
	z"/>
<path class="st5" d="M140.99,32.37c0-1.08,0.05-2.16-0.02-3.23c-0.07-1.06,0.54-1.35,1.25-0.92c0.62,0.38,0.96,0.2,1.48-0.02
	c2.4-1.02,4.31,0.26,4.34,2.88c0.02,1.59-0.01,3.18,0.02,4.77c0.01,0.56-0.13,0.89-0.77,0.87c-0.62-0.01-0.8-0.31-0.79-0.89
	c0.02-1.5,0.01-2.99-0.01-4.49c-0.01-1.07-0.25-1.98-1.57-2.07c-1.26-0.08-2.15,0.61-2.26,1.96c-0.12,1.44-0.06,2.9-0.06,4.35
	c0,0.59,0.06,1.14-0.81,1.14c-0.84,0-0.84-0.52-0.82-1.13C141,34.53,140.98,33.45,140.99,32.37
	C140.98,32.37,140.99,32.37,140.99,32.37z"/>
<path class="st1" d="M107.1,32.4c0-1.12,0.03-2.25-0.01-3.37c-0.03-1.02,0.65-1.22,1.23-0.78c0.64,0.49,1,0.12,1.48-0.07
	c2.38-0.9,4.27,0.31,4.35,2.84c0.05,1.59,0,3.18,0,4.77c0,0.52-0.04,0.91-0.72,0.93c-0.7,0.02-0.89-0.3-0.88-0.93
	c0.02-1.5,0-2.99,0-4.49c0-1.1-0.32-1.95-1.61-2.03c-1.22-0.07-2.09,0.58-2.19,1.86c-0.12,1.49-0.06,2.99-0.09,4.49
	c-0.01,0.49,0.16,1.06-0.68,1.09c-0.85,0.03-0.87-0.48-0.86-1.09c0.02-1.08,0-2.15,0-3.23C107.11,32.4,107.11,32.4,107.1,32.4z"/>
<path class="st2" d="M48.67,37.46c0,0.52-0.48,0.48-0.77,0.67c-0.82,0.55-1.39,1.14-1.56,2.28c-0.25,1.6-1.27,2.96-2.17,4.32
	c-2.74,0.01-5.47,0.02-8.21,0.02c-0.03-0.09-0.05-0.18-0.08-0.27c2.39-1.41,4.69-3,7.19-4.17C44.97,39.42,46.49,37.78,48.67,37.46z"
	/>
<path class="st5" d="M185.62,36.87c-1.46,0.01-2.08-0.55-2.12-1.9c-0.04-1.4,0.01-2.81-0.02-4.21c-0.01-0.63,0.32-1.41-0.81-1.6
	c-0.41-0.07-0.45-0.85,0.04-0.97c0.96-0.23,0.79-0.9,0.77-1.52c-0.01-0.53,0.19-0.86,0.65-1.12c0.64-0.37,0.9-0.31,0.93,0.5
	c0.03,0.87-0.47,2.09,1.16,2.15c0.27,0.01,0.27,0.34,0.26,0.58c-0.02,0.35-0.25,0.5-0.56,0.48c-0.95-0.07-0.88,0.57-0.87,1.2
	c0.01,1.12,0,2.24,0.01,3.37c0,0.75-0.12,1.53,1.02,1.62c0.53,0.04,0.6,0.61,0.53,1C186.48,37,185.91,36.77,185.62,36.87z"/>
<path class="st5" d="M145.65,11.1c0,1.54,0,3.09,0,4.63c0,0.47,0.08,0.95-0.65,0.95c-0.69,0-0.72-0.4-0.71-0.92
	c0.01-3.23,0.01-6.45,0-9.68c0-0.5,0.01-0.96,0.71-0.91c0.69,0.05,0.64,0.54,0.64,1.01C145.64,7.83,145.64,9.47,145.65,11.1
	C145.64,11.1,145.65,11.1,145.65,11.1z"/>
<path class="st5" d="M167.83,10.76c0-1.49-0.01-2.99,0.01-4.48c0.01-0.47-0.2-1.11,0.65-1.1c0.83,0.01,0.66,0.68,0.67,1.13
	c0.03,3.17,0.01,6.35,0.02,9.52c0,0.45,0.01,0.83-0.62,0.86c-0.69,0.03-0.72-0.35-0.72-0.88c0.02-1.68,0.01-3.36,0.01-5.04
	C167.84,10.76,167.83,10.76,167.83,10.76z"/>
<path class="st6" d="M41.36,63.23c0-0.61,0.67-0.37,0.9-0.69c-0.68-0.72-1.65-0.15-2.44-0.58c0.3-0.57,0.82-0.31,1.22-0.35
	c2.01-0.19,4.08,0.43,6.03-0.54c0.26-0.13,0.73-0.15,0.96,0c1.56,1.03,2.86,0.01,4.23-0.47c0.26-0.09,0.56-0.16,0.82-0.11
	c1.75,0.34,3.32-0.74,5.04-0.6c0.23,0.02,0.52-0.04,0.57-0.31c0.2-1.06,0.96-0.78,1.64-0.71c-0.05,0.15-0.11,0.31-0.16,0.46
	c-1.07,0.78-2.28,1.23-3.58,1.45c-4.71,0.79-9.41,1.59-14.12,2.37C42.11,63.22,41.73,63.21,41.36,63.23z"/>
<path class="st1" d="M103.89,32.39c0-1.12,0.03-2.24-0.01-3.36c-0.02-0.64,0.17-0.94,0.87-0.92c0.67,0.02,0.74,0.38,0.74,0.91
	c-0.01,2.29,0,4.57,0.01,6.86c0,0.56-0.16,0.87-0.8,0.85c-0.59-0.02-0.84-0.23-0.82-0.84C103.91,34.72,103.89,33.55,103.89,32.39z"
	/>
<path class="st6" d="M67.75,44.36c-0.13-1.3,0.74-2.27,1.29-3.27c0.66-1.19,0.1-1.47-0.73-2c-1.09-0.7-2.45-0.34-3.5-1.1
	c-0.2-0.15-0.37-0.26-0.41-0.5c2.11,0.31,4.17,0.76,5.85,2.2c-0.23,0.52-0.46,1.05-0.69,1.57c-0.06,0.1-0.11,0.19-0.17,0.29
	c-0.48,0.57-0.82,1.2-0.9,1.95c0,0-0.03,0.01-0.03,0.01C68,43.61,68.11,44.19,67.75,44.36z"/>
<path class="st1" d="M139.45,25.63c0.08,0.65-0.15,0.89-0.76,0.91c-0.72,0.02-0.82-0.34-0.82-0.94c0-0.58,0.18-0.82,0.79-0.82
	C139.36,24.78,139.58,25.06,139.45,25.63z"/>
<path class="st1" d="M105.47,25.65c0.11,0.68-0.19,0.9-0.85,0.89c-0.66-0.01-0.7-0.35-0.74-0.88c-0.04-0.69,0.23-0.88,0.88-0.88
	C105.42,24.78,105.55,25.11,105.47,25.65z"/>
<path class="st5" d="M82.73,4.97c0.07,0.63-0.29,0.77-0.83,0.76c-0.54-0.01-0.71-0.24-0.66-0.77c0.05-0.45,0.11-0.8,0.68-0.81
	C82.5,4.14,82.78,4.37,82.73,4.97z"/>
<path class="st5" d="M80.32,4.96c0.09,0.5-0.07,0.76-0.63,0.78c-0.6,0.02-0.82-0.21-0.79-0.8c0.02-0.47,0.09-0.79,0.66-0.81
	C80.17,4.11,80.39,4.39,80.32,4.96z"/>
<path class="st5" d="M119.67,6.55c0.02,0.54-0.07,0.9-0.67,0.89c-0.54-0.01-0.72-0.28-0.74-0.79c-0.02-0.52,0.14-0.8,0.7-0.81
	C119.49,5.85,119.76,6.06,119.67,6.55z"/>
<path class="st5" d="M194.75,18.57c0.03,0.48-0.08,0.81-0.65,0.82c-0.65,0.02-0.74-0.36-0.74-0.88c0-0.51,0.19-0.74,0.73-0.73
	C194.67,17.79,194.79,18.1,194.75,18.57z"/>
<path class="st5" d="M157.02,4.92c-0.04-0.5,0.13-0.78,0.69-0.79c0.68-0.02,0.7,0.38,0.71,0.9c0.02,0.58-0.28,0.7-0.77,0.71
	C157.07,5.74,156.97,5.4,157.02,4.92z"/>
<path class="st1" d="M156.07,4.99c0.07,0.54-0.18,0.73-0.72,0.74c-0.59,0-0.68-0.31-0.67-0.8c0-0.51,0.18-0.79,0.73-0.78
	C155.98,4.16,156.1,4.51,156.07,4.99z"/>
<path class="st6" d="M62.2,55.43c0.01,0.19,0.03,0.37,0.04,0.56c-0.03,0.1-0.05,0.2-0.08,0.3c-0.51,0.52-0.75,1.19-1,1.86
	c-0.06,0.1-0.12,0.2-0.18,0.31c-0.15,0.06-0.3,0.12-0.45,0.18C60.43,56.83,61.04,55.65,62.2,55.43z"/>
<path class="st5" d="M164.93,17.49c0.05,0,0.09,0,0.14,0.01c0.83,0.11,1.04,0.65,0.94,1.39c-0.05,0.43-0.37,0.52-0.71,0.49
	c-0.92-0.08-0.43-0.87-0.63-1.31C164.75,17.87,164.84,17.68,164.93,17.49z"/>
<path class="st7" d="M164.93,17.49c-0.09,0.19-0.18,0.38-0.26,0.57c-1.16-0.27-0.13-0.98-0.3-1.45c0.19-0.08,0.37-0.15,0.56-0.23
	C164.93,16.75,164.93,17.12,164.93,17.49z"/>
<path class="st8" d="M30.69,32.1c-0.19-0.19-0.38-0.37-0.56-0.56c0-0.28,0-0.56,0-0.83C31.04,30.88,30.58,31.61,30.69,32.1z"/>
<path class="st7" d="M80.96,21.15c0,0.19,0,0.37,0,0.56c-0.26-0.06-0.73,0.14-0.68-0.34C80.31,21.08,80.71,21.17,80.96,21.15z"/>
<path class="st9" d="M31.23,52.04c0.07-0.03,0.14-0.05,0.21-0.07c0.12,0.4,0.23,0.8-0.1,1.16c-0.04-0.18-0.09-0.35-0.13-0.53
	C31.21,52.41,31.22,52.23,31.23,52.04z"/>
<path class="st8" d="M38.29,1.51c-0.1,0.08-0.2,0.16-0.3,0.24C38.09,1.66,38.19,1.58,38.29,1.51z"/>
<path class="st10" d="M35.88,44.48c0.03,0.09,0.05,0.18,0.08,0.27c-0.15,0.01-0.3,0.02-0.45,0.03c0,0-0.06-0.08-0.06-0.08
	C35.59,44.63,35.74,44.56,35.88,44.48z"/>
<path class="st9" d="M49.54,25.6c-0.11,0.02-0.21,0.04-0.32,0.06c-4.9-2.11-9.77-4.33-15.07-5.34c-3.1-0.83-2.98-3.52-3.42-5.89
	c1.47,0.01,2.19-1.29,3.24-1.97c1.1-0.71,1.91-1.87,2.92-2.75c0.86-0.76,1.63-0.42,2.21,0.45c1.61,2.42,3.2,4.85,4.83,7.25
	C45.79,20.15,47.67,22.87,49.54,25.6z"/>
<path class="st9" d="M35.51,44.79c0.15-0.01,0.3-0.02,0.45-0.03c2.74-0.01,5.47-0.02,8.21-0.02c0.11,0.02,0.22,0.03,0.33,0.05
	c-0.41,2.17-1.48,4.11-2.19,6.16c-0.46,1.31-0.75,2.68-1.44,3.91c-0.58,1.03-1.09,1.11-2.07,0.39c-1.87-1.37-3.78-2.69-5.68-4.02
	c-0.47-0.33-0.97-0.57-1.56-0.32C31.4,47.91,32.87,45.97,35.51,44.79z"/>
<path class="st6" d="M67.7,44.45c-0.07,0.11-0.13,0.21-0.2,0.32C67.57,44.66,67.63,44.55,67.7,44.45z"/>
<path class="st11" d="M25.61,24.47c-0.09,0.97-0.63,1.84-0.56,2.86c0.05,0.78-0.79,0.43-1.34,0.83c1.65,0.16,1.37,1.28,1.37,2.26
	c0,3.55-0.07,7.1,0.04,10.64c0.04,1.22-0.19,2.53,0.51,3.68c-1.66-0.78-2.86-2.08-4.01-3.46c-1.42-1.7-2.93-3.32-4.41-4.98
	c0.16-0.84-0.45-1.25-0.95-1.74c-1.64-1.64-1.63-1.64-0.47-3.58c3.06-2.07,6.13-4.14,9.2-6.2C25.18,24.64,25.4,24.57,25.61,24.47z"
	/>
<path class="st9" d="M26.78,18.35c0.86,0.53,1.89,0.91,2.53,1.63c0.98,1.12,0.6,2.58,0.43,3.93c-0.32-0.63,0.21-1.93-1.29-1.62
	c-0.93,0.16-1.94,0.2-2.21,1.41c-0.2,0.18-0.39,0.36-0.59,0.55c0-1.1,0.03-2.21-0.02-3.31C25.59,19.86,26.4,19.2,26.78,18.35z"/>
<path class="st9" d="M15.8,30.97c-1.16,1.94-1.16,1.94,0.47,3.58c0.49,0.49,1.1,0.9,0.95,1.74c-1.36-0.67-2.07-2.05-3.18-2.99
	c-0.36-0.3-0.35-1.02,0.08-1.39C14.6,31.51,14.8,30.48,15.8,30.97z"/>
<path class="st6" d="M13.84,12.72c0.01-0.19-0.02-0.38,0.02-0.55c0.53-2.29,0.84-2.41,2.76-1.03c1.01,0.73,2.02,1.46,3.04,2.19
	c-1.35,0.12-2.08-1.01-3.05-1.59c-1.39-0.84-1.47-0.93-2.24,0.63C14.25,12.61,14.07,12.69,13.84,12.72z"/>
<path class="st6" d="M20.02,13.59c0.42,0.14,0.77,0.36,0.98,0.76C20.36,14.5,19.98,14.31,20.02,13.59z"/>
<path class="st6" d="M19.73,13.37c0.16-0.02,0.26,0.05,0.28,0.21C19.91,13.51,19.82,13.44,19.73,13.37z"/>
<path class="st3" d="M26.24,23.69c0.26-1.21,1.28-1.25,2.21-1.41C28.15,23.44,27.09,23.4,26.24,23.69z"/>
<text transform="matrix(1 0 0 1 76.1494 58.9141)" class="st0 st12 st13">2021</text>
</svg>
